# xmcd CD database file
#
# Track frame offsets:
#	150
#	20060
#	39927
#	62860
#	82115
#	105055
#	131557
#	154955
#	176472
#	179090
#	200645
#
# Disc length: 3035 seconds
#
# Revision: 1
# Processed by: cddbd v1.5.1PL0 Copyright (c) Steve Scherf et al.
# Submitted via: CDex 1.51
#
DISCID=940bd90b
DTITLE=高野寛 - 確かな光
DYEAR=2004
DGENRE=Rock
TTITLE0=確かな光
TTITLE1=1.2.3.4.5.6.7 days
TTITLE2=Ripe of Green
TTITLE3=忘却
TTITLE4=歓びの歌（サン・セバスチャンの思い出）
TTITLE5=hibiki
TTITLE6=Sunshine Superman
TTITLE7=声は言葉にならない
TTITLE8=Sunburst
TTITLE9=Beautiful
TTITLE10=美しい星
EXTD=YEAR: 2004
EXTT0=
EXTT1=
EXTT2=
EXTT3=
EXTT4=
EXTT5=
EXTT6=
EXTT7=
EXTT8=
EXTT9=
EXTT10=
PLAYORDER=
